# xmcd
#
# Track frame offsets:
# 182
# 15437
# 29875
# 43530
# 54697
# 65365
# 76497
# 93137
# 105952
# 122600
# 134537
# 144317
# 155132
# 170007
# 184652
# 197897
# 211915
# 226320
# 243242
# 258210
# 271675
# 286287
# 304582
# 318317
#
# Disc length: 4428 seconds
#
#
# Revision: 3
# Processed by: cddbd v1.5.1PL2 Copyright (c) Steve Scherf et al.
# Submitted via: FreeRIP 2.944 
#
DISCID=49114a18
DTITLE=João Paulo and Daniel - Dose Dupla (vol.02)
DYEAR=1900
DGENRE=Sertaneja
TTITLE0=Brincar De Esconder
TTITLE1=Caminhoneiro Do Amor
TTITLE2=Amor Sempre Amor
TTITLE3=Ninguém Prende Ninguém
TTITLE4=Minhoca Na Cabeça
TTITLE5=Amante Menina
TTITLE6=Homem E Mulher
TTITLE7=Nossa Música
TTITLE8=Siriema Do Serrado
TTITLE9=O Mal Do Amor
TTITLE10=Noite Dos Namorados
TTITLE11=Saudade E Tormento
TTITLE12=Espere Por Mim
TTITLE13=Tá Faltando Amor
TTITLE14=Tchau Tchau
TTITLE15=Dou O Braço A Torcer
TTITLE16=Com Quantos Paus Se Faz Uma Cama
TTITLE17=Anjo Meu
TTITLE18=Você Virou Mania
TTITLE19=Gosto De Hortelã
TTITLE20=Fogo De Amor
TTITLE21=Não Espere Amanhecer
TTITLE22=Quando Cai A Chuva
TTITLE23=Agito
EXTD=
EXTT0=
EXTT1=
EXTT2=
EXTT3=
EXTT4=
EXTT5=
EXTT6=
EXTT7=
EXTT8=
EXTT9=
EXTT10=
EXTT11=
EXTT12=
EXTT13=
EXTT14=
EXTT15=
EXTT16=
EXTT17=
EXTT18=
EXTT19=
EXTT20=
EXTT21=
EXTT22=
EXTT23=
PLAYORDER=
